<svg height="551" width="1089" viewBox="260 48 1089 551" style="background-color:transparent;" preserveAspectRatio="xMinYMin meet" xmlns:xlink="http://www.w3.org/1999/xlink" xmlns="http://www.w3.org/2000/svg"><g transform="translate(0,0)"><g transform="matrix(1,0,0,1,712,347)"><path style="fill:none;stroke:#333333;stroke-width:3.0;" d="m0,0.18579983593109103l220.2290199194061,-1.1176821164889255l1.944600375501794,72.4887284659557l-221.0953745432394,-0.2232510254306809z"/><path style="fill:#333333;stroke:none;stroke-width:3.0;" d="m90.248274,-6.1981l38.0093,-2.40741l-0.603966,2.40741l3.76254,0.531494l-2.13063,2.4458l-1.31318,1.85211l3.61304,0l-2.87453,2.84827l2.21614,2.70691l-40.9795,2.25l0.300789,-2.40662l-2.71546,-0.902466l3.31823,-1.50378l-3.85104,-3.49121l3.36488,-1.28223l-2.0523,-1.42377l1.93569,-1.62451z"/></g><text style="font-weight:Normal; font-size: 12px; text-anchor: start; font-family: arial,helvetica; fill: #333333;" y="373" x="727"><tspan x="727" font-weight="bold" font-size="36" dy="26">View Work</tspan></text></g><g transform="translate(0,0)"><g transform="matrix(1,0,0,1,275,156)"><path style="fill:none;stroke:#333333;stroke-width:3.0;" d="m0,0 995,0"/></g></g><g transform="translate(0,0)"><g transform="matrix(1,0,0,1,335,146)"><path style="fill:none;stroke:#333333;stroke-width:3.0;" d="m0,0 0,361"/></g></g><g transform="translate(0,0)"><g transform="matrix(1,0,0,1,343,512)"><path style="fill:none;stroke:#333333;stroke-width:3.0;" d="m0,0 991,0"/></g></g><g transform="translate(0,0)"><g transform="matrix(1,0,0,1,1267,156)"><path style="fill:none;stroke:#333333;stroke-width:3.0;" d="m0,0 0,411"/></g></g><g transform="translate(0,0)"><path style="fill:none;stroke:#333333;stroke-width:2;" d="M513,75 C513,87 498,87  498,99"/><polyline style="fill:#ffffff;stroke:#333333;stroke-width:2;fill-opacity:0;" points="489,81 498,99 509,82"/><text style="font-weight:Normal; font-size: 12px; text-anchor: middle; font-family: arial,helvetica; fill: #333333;" y="93" x="517"/><text style="font-weight:Normal; font-size: 12px; text-anchor: start; font-family: arial,helvetica; fill: #333333;" y="87" x="505"/><text style="font-weight:Normal; font-size: 12px; text-anchor: middle; font-family: arial,helvetica; fill: #333333;" y="94" x="517"/></g><g transform="translate(0,0)"><g transform="matrix(1,0,0,1,387,185)"><path style="fill:none;stroke:#333333;stroke-width:3.0;" d="m0,130 128,-130"/></g></g><g transform="translate(0,0)"><g transform="matrix(1,0,0,1,377,181)"><path style="fill:none;stroke:#333333;stroke-width:3.0;" d="m0,250 248,-250"/></g></g><g transform="translate(0,0)"><g transform="matrix(1,0,0,1,291,58)"><path style="fill:none;stroke:#333333;stroke-width:3.0;" d="m1.6154197039488396,81.96341143294319l201.33296364205538,-1.3006054764365518l0,-75.05356023299903l-24.778068959348868,0l-1.5510934215822192,-16.021055135394924l-30.973104959527753,0l-3.0980575108447743,14.720449658958373l-72.78933858056438,1.3006054764365518l-6.194029605116051,-12.12010984170244l-26.328124860247755,0l-3.0980575108447743,12.12010984170244l-34.07217924064219,0z"/></g><text style="font-weight:bold; font-size: 30px; text-anchor: middle; font-family: arial,helvetica; fill: #333333;" y="113" x="392">Logo</text></g><g transform="translate(0,0)"><g transform="matrix(1,0,0,1,450,177)"><path style="fill:none;stroke:#333333;stroke-width:3.0;" d="m0,282 281,-282"/></g></g><g transform="translate(0,0)"><g transform="matrix(1,0,0,1,560,191)"><path style="fill:none;stroke:#333333;stroke-width:3.0;" d="m0,284 283,-284"/></g></g><g transform="translate(0,0)"><g transform="matrix(1,0,0,1,749,423)"><path style="fill:none;stroke:#333333;stroke-width:3.0;" d="m0,44 43,-44"/></g></g><g transform="translate(0,0)"><g transform="matrix(1,0,0,1,857,168)"><path style="fill:none;stroke:#333333;stroke-width:3.0;" d="m0,168 167,-168"/></g></g><g transform="translate(0,0)"><g transform="matrix(1,0,0,1,913,247)"><path style="fill:none;stroke:#333333;stroke-width:3.0;" d="m0,246 0,-1 12,-13 7,-11 10,-11 7,-6 3,-4 2,0 0,0 0,-2 3,-2 1,-2 2,-1 1,0 190,-191"/></g></g><g transform="translate(0,0)"><rect style="fill: #000000;fill-opacity: 0;stroke-opacity:0;stroke-width: 1;stroke:%stroke%;" rx="4" height="62" width="100" y="63" x="583"/><text style="font-weight:Normal; font-size: 12px; text-anchor: start; font-family: arial,helvetica; fill: #333333;" y="84" x="583"><tspan x="583" font-weight="bold" font-size="36" dy="26">Work</tspan></text></g><g transform="translate(0,0)"><rect style="fill: #000000;fill-opacity: 0;stroke-opacity:0;stroke-width: 1;stroke:%stroke%;" rx="4" height="62" width="171" y="63" x="706"/><text style="font-weight:Normal; font-size: 12px; text-anchor: start; font-family: arial,helvetica; fill: #333333;" y="84" x="706"><tspan x="706" font-weight="bold" font-size="36" dy="26">Thoughts</tspan></text></g><g transform="translate(0,0)"><rect style="fill: #000000;fill-opacity: 0;stroke-opacity:0;stroke-width: 1;stroke:%stroke%;" rx="4" height="62" width="97" y="63" x="894"/><text style="font-weight:Normal; font-size: 12px; text-anchor: start; font-family: arial,helvetica; fill: #333333;" y="84" x="894"><tspan x="894" font-weight="bold" font-size="36" dy="26">Blog</tspan></text></g><g transform="translate(0,0)"><rect style="fill: #000000;fill-opacity: 0;stroke-opacity:0;stroke-width: 1;stroke:%stroke%;" rx="4" height="62" width="171" y="62" x="994"/><text style="font-weight:Normal; font-size: 12px; text-anchor: start; font-family: arial,helvetica; fill: #333333;" y="83" x="994"><tspan x="994" font-weight="bold" font-size="36" dy="26">About Me</tspan></text></g><g transform="translate(0,0)"><rect style="fill: #000000;fill-opacity: 0;stroke-opacity:0;stroke-width: 1;stroke:%stroke%;" rx="4" height="62" width="96" y="132" x="736"/><text style="font-weight:Normal; font-size: 12px; text-anchor: start; font-family: arial,helvetica; fill: #333333;" y="153" x="736"><tspan x="736" font-weight="bold" font-size="36" dy="26">Logo</tspan></text></g><text style="font-weight:Normal; font-size: 16px; text-anchor: end; font-family: Arial; fill: #ccc;" y="584" x="1334">http://sketchboard.io</text></svg>