<svg height="290" width="1754" viewBox="18 178 1754 290" style="background-color:transparent;" preserveAspectRatio="xMinYMin meet" xmlns:xlink="http://www.w3.org/1999/xlink" xmlns="http://www.w3.org/2000/svg"><g transform="translate(0,0)"><g transform="matrix(1,0,0,1,1165,201)"><path style="fill:none;stroke:#333333;stroke-width:3.0;" d="m26.6076264952053,38.10191077525496c48.91710285976491,-69.60218835524385 203.19159001601332,-40.95906709070582 210.72572999934434,65.48759702855449c7.519524774827919,106.44268866870313 -75.25736238441723,163.76828815829535 -161.8086271395794,118.7268308904134c-86.53664954665912,-45.01005120848018 -92.2804264883644,-122.50390646479752 -48.91710285976491,-184.2144279189679z"/></g><text style="font-weight:bold; font-size: 24px; text-anchor: middle; font-family: arial,helvetica; fill: #333333;" y="315" x="1284">Concept</text><text style="font-weight:bold; font-size: 24px; text-anchor: middle; font-family: arial,helvetica; fill: #333333;" y="346" x="1284">Ideate/Iterate</text></g><g transform="translate(0,0)"><g transform="matrix(1,0,0,1,124,245)"><path style="fill:rgb(229,183,0);stroke:none;stroke-width:3.0;" d="m10.103441245280507,77.23679127632441l7.604191073331617,-9.646297429782491c0.5567734590180949,-0.7062594700811583 1.5428447231922415,-0.8021862106798703 2.2109290733636926,-0.21510732611652147c0.6680851797292213,0.587078002600028 0.7577296810424112,1.6283776990282528 0.20096534715978775,2.3347509423778083l-7.604182777753916,9.646385626114583c-0.5567518905160717,0.7063670696063094 -1.5428364276145403,0.8021862106798703 -2.2109207777859914,0.21510732611652147c-0.6681026004423939,-0.5872940836136508 -0.7577329992734917,-1.6284923542599712 -0.20098110875742015,-2.3348567779763174z"/><path style="fill:rgb(229,183,0);stroke:none;stroke-width:3.0;" d="m79.424109013477,77.1221360446062l-8.322953107680101,-8.950428369584968c-0.6093707398752014,-0.6554433894203209 -1.5995367012026929,-0.6648098398883788 -2.220079095568189,-0.02153225251668234c-0.6205357579033352,0.6433851868968474 -0.6294850271274609,1.6888892024758475 -0.02012009415665037,2.344329064042885l8.322953107680101,8.950516565917058c0.6093707398752014,0.6554433894203209 1.5995201100472904,0.6649174394135297 2.220045913257384,0.02153225251668234c0.6205548377320481,-0.6434927864219984 0.6295223572271166,-1.6889950380743568 0.02014498088975417,-2.344434899641394z"/><path style="fill:rgb(229,183,0);stroke:none;stroke-width:3.0;" d="m76.29252843124911,49.63133933185987l11.859026058621714,-1.0400111480163765c0.8595213967835649,-0.07547048333353913 1.4946557123255877,-0.8733500671174087 1.424035459354711,-1.7892301694957113c-0.07058126375568087,-0.9154426485711313 -0.8193873918648403,-1.5919878924075308 -1.6789170842261065,-1.5166241266358216l-11.858943102844702,1.0400111480163765c-0.8595379879389675,0.07536288380838818 -1.4946723034809903,0.8732424675922579 -1.4240686416655162,1.7889038430669746c0.07061278695094567,0.9157689749998678 0.8194122785979442,1.5923142188362671 1.6789336753815092,1.5169504530645581z"/><path style="fill:rgb(229,183,0);stroke:none;stroke-width:3.0;" d="m1.823210362761926,46.015289716131285l11.82650739403275,1.3971269162858055c0.8571737482941066,0.10120176322107118 1.624431729884192,-0.5523039527832118 1.7203037213777221,-1.4653820576909848c0.09587530972461078,-0.912973151272585 -0.5169986526138352,-1.7294771545040986 -1.3741707417924014,-1.8307882811769627l-11.82650739403275,-1.3971269162858055c-0.8571654527164053,-0.10130936274622211 -1.6244234343064907,0.5521963532580607 -1.7203037213777221,1.4653820576909848c-0.09587530972461078,0.912973151272585 0.5170102664226169,1.7294771545040986 1.3741790373701028,1.8307882811769627z"/><path style="fill:rgb(229,183,0);stroke:none;stroke-width:3.0;" d="m69.09445565986067,23.181259337786663l9.35674800081186,-7.707168774265017c0.6852877192083365,-0.5644159550692607 0.8065010414636938,-1.6029154179535983 0.27179381913096634,-2.328339069034797c-0.5347138587948885,-0.7254236510811989 -1.5168961561426817,-0.8549937645193212 -2.2021855344665586,-0.2905248916508061l-9.35674800081186,7.707115856465762c-0.6853126059414403,0.564577354356987 -0.8065201212924068,1.6029154179535983 -0.27181289895967925,2.328391986834052c0.5347138587948885,0.7254236510811989 1.5169044517203831,0.8549937645193212 2.202202125621961,0.2905248916508061z"/><path style="fill:rgb(229,183,0);stroke:none;stroke-width:3.0;" d="m21.167916871674972,22.03470702060443l-6.617307672100516,-10.43627197632105c-0.4844965791802752,-0.7641277294559875 -1.455815817528261,-0.9687396920536869 -2.1778131271802392,-0.4588537651896133c-0.7219989687675186,0.5099388446633282 -0.9131854889330542,1.535577518402165 -0.42868973931054905,2.2997017200048684l6.6172910809451135,10.43636017265314c0.4845057043157467,0.764073929693412 1.455824113105962,0.9686867742544324 2.1778131271802392,0.4587999654270378c0.7219931618631278,-0.5098312451381772 0.913210375666158,-1.5356833540006738 0.42870550090818144,-2.2997017200048684z"/><path style="fill:rgb(229,183,0);stroke:none;stroke-width:3.0;" d="m43.99568759001854,2.29724986197274l1.2490153610134027,12.448559489307959c0.0924160538231829,0.9210960334581606 0.8629142880633828,1.5841295992182278 1.7275789430217325,1.4866991111573653c0.8646812461137523,-0.09732641638899522 1.4863767257797245,-0.9172242144793682 1.393963990187622,-1.8383202479375291l-1.2490153610134027,-12.448559489307959c-0.0924160538231829,-0.9210960334581606 -0.8629142880633828,-1.5841295992182278 -1.7275789430217325,-1.4866991111573653c-0.8646646549583497,0.09743401591414617 -1.4863767257797245,0.9172242144793682 -1.393963990187622,1.8383202479375291z"/><path style="fill:rgb(229,183,0);stroke:none;stroke-width:3.0;" d="m47.8085839688514,21.143924066485926c-0.19079496889803574,-0.014103475464662375 -0.3616846991018839,0.005328822384934656 -0.5226189065064428,0.03795088169873192c-0.13356128966369177,-0.027346154728117168 -0.2754140092397988,-0.04058795202825105 -0.4263926938450685,-0.03795088169873192c-12.436730089737873,0.19406015342633934 -23.26079987434965,6.404835275710554 -25.10573635511119,20.36188718983555c-1.6723884645752103,12.65185203477758 3.6616679973387787,25.858370802075086 10.90868467716469,35.727452166719296c-1.1124369697397603,0.8775490944882585 -2.0075298037063534,2.041798005704539 -2.0929742540293925,3.583408153221724c-0.0871035658632922,1.5655025338806212 0.6810660997161623,2.8072716111882343 1.6856613888972358,3.818971736603418c-0.9166613359898845,0.8334077122400634 -1.6101716318157158,1.8944131151473673 -1.6856613888972358,3.242979130983901c-0.12277372042096554,2.2083567788582807 1.4450896355605238,3.7801036130509407 2.996362665697252,4.958353691986658c0.05972732989134452,0.045863856613931143 0.11945714845599942,0.0740708075432559 0.17918447834734394,0.10938373694914777c-0.4463004212125664,0.5785732302964984 -0.7573845850100386,1.254151842333181 -0.8021815341546448,2.054939259186089c-0.10369472126582405,1.85651515124789 1.2153021332354579,3.178595808557514 2.519366947874461,4.169084716104827c0.08876434051908563,0.06793410675636823 0.1775261923648609,0.11724379406509243 0.26628721465286603,0.1622459725144951c0.25467672410217423,0.27959736610473845 0.6072379468482059,0.4727420416039738 1.0709590812334306,0.4929822178555239c6.6289961410816,0.28842493698372074 13.234764664599656,0.44195093814438446 19.706974387127328,-1.3326377582609097c0.4189241852406188,-0.11552043773603543 0.7067807314745463,-0.35539064801373044 0.8901154873458336,-0.6508139639488674c0.15264360704991375,-0.1764570475043084 0.27790765989679933,-0.39780955589618944 0.3575393989245613,-0.6755759661467199c0.48031560801883727,-1.6775824327017888 0.2928372110857676,-3.3727159354896754 -0.5209606205239597,-4.786414942575369c0.45460097626045315,-0.1085229407479402 0.9083657582886187,-0.2240433784839756 1.3621338585478646,-0.3483931510256352c0.49939792540505923,-0.13672989167726493 0.840342021138238,-0.4224639585688911 1.0585157146815318,-0.7744096578511495c0.18167481077326397,-0.20993990301931326 0.3301664811836941,-0.4727420416039738 0.42473440786258543,-0.8034782869450026c0.593137123871594,-2.0734516692919778 0.32103968659676135,-4.165530403921562 -0.7457740944593467,-5.886179105583357c0.12526405284688558,-0.11293716716909179 0.2355977249470327,-0.23545598385654337 0.32103968659676135,-0.37304755369833686c0.18167481077326397,-0.20993990301931326 0.3301664811836941,-0.4727420416039738 0.42473440786258543,-0.8034782869450026c0.6462246733708453,-2.2578790193273446 0.2754140092397988,-4.541273237528598 -1.041924559279,-6.33867920700914c14.243506913073592,-17.71246937382368 17.351030319967805,-53.760956189354005 -11.228064418663427,-55.908625072100506zm-12.05513351547964,68.46160901860414c-0.08212538968476252,-0.08828276449639014 -0.1692314442213651,-0.1746269736134214 -0.27209411904375214,-0.2532196071029798c-0.3658366357413675,-0.27776641025053056 -0.6794078137336791,-0.5891241575045378 -0.9838555153701385,-0.9419280070980409c-0.08544527988080913,-0.09958688838048604 -0.10701461146187068,-0.28045816230594606 -0.12443532463452911,-0.32007771860783857c0.12360576686440251,-0.35894319627035354 0.590646791445674,-0.6852660971535516 1.046072348129633,-0.9402081786222676c0.162592493387042,0.045863856613931143 0.33431178136101675,0.0776242377631999 0.5267675249148459,0.0776242377631999c6.734349977887677,-0.012381001098926299 13.462893051384468,-0.1773187256688369 20.190606567111132,-0.4824312906474846c0.3285081952012111,0.5026714668990346 0.45543053403057976,1.0397994768193581 0.4338612024495182,1.6351599969660464c-6.852147181245653,1.687160554366865 -13.819602892538901,1.5230889177780877 -20.81692268355671,1.225082331276007zm0,-7.06195086758732c-0.08212538968476252,-0.08817516497123919 -0.1692314442213651,-0.1746269736134214 -0.27209411904375214,-0.25311200757782887c-0.3658366357413675,-0.27776641025053056 -0.6794078137336791,-0.5891241575045378 -0.9838555153701385,-0.9419280070980409c-0.08544527988080913,-0.099694487905637 -0.10701461146187068,-0.28045816230594606 -0.12443532463452911,-0.3201853181329895c0.12360576686440251,-0.35894319627035354 0.590646791445674,-0.6852660971535516 1.046072348129633,-0.9401023430237584c0.162592493387042,0.045863856613931143 0.33431178136101675,0.0776242377631999 0.5267675249148459,0.0776242377631999c6.734349977887677,-0.012381001098926299 13.462893051384468,-0.1773187256688369 20.190606567111132,-0.4824312906474846c0.3285081952012111,0.5026714668990346 0.45543053403057976,1.0397994768193581 0.4338612024495182,1.6351599969660464c-6.852147181245653,1.6863050499455832 -13.819602892538901,1.5230889177780877 -20.81692268355671,1.2249764956774978zm1.5471252412860947,13.909443534062307c-0.06885329492050717,-0.0740708075432559 -0.14185271957610704,-0.1472808188853042 -0.2289554558816291,-0.21252405554957782c-0.307767591832506,-0.23373350949080732 -0.5715677922905326,-0.49567396991093937 -0.8270707559317529,-0.7919580820472839c-0.07216986688547329,-0.08386853807523853 -0.08959058005813172,-0.23556358338169434 -0.10452344947818051,-0.26904643889669916c0.10452344947818051,-0.30166761624717553 0.49690427474805865,-0.575881478241083 0.8801607941043145,-0.7910972858460763c0.13687786162865787,0.038757878137364025 0.28121759539960445,0.0652432366642736 0.44381008878664646,0.0652432366642736c5.662561338884119,-0.010550927208039273 11.319315773377353,-0.1490032932510403 16.976070207870585,-0.4056687310488132c0.2762427374521553,0.4224639585688911 0.382425302470589,0.8739965462316355 0.36500127106685004,1.3749455387649339c-5.762108271299311,1.4182234789219588 -11.620445243933306,1.2806372008600906 -17.504498507441227,1.0301066999225637zm18.655924692376935,-21.75097942026787c-0.25467340587109377,0.30608184266832716 -0.39238082526987816,0.634988014118469 -0.4545951693560622,0.9640035490204035c-2.5409354498977526,0.11196788947941234 -5.081870899795505,0.19045292344381984 -7.623635907463384,0.2619404604201321c0.34178028996546644,-5.354434599773865 0.39736149012171823,-10.714002226075422 0.40233634806916746,-16.079073303499456c3.484142634531688,-3.3020883127512497 5.834279797300325,-7.598105190001359 6.893625069751983,-12.44194476440114c0.553320839578828,-2.532090235431289 -3.1058642913539622,-3.60720352361986 -3.6600005862208245,-1.072414480426588c-0.8660583120121624,3.9591421671955516 -2.637993709002564,7.3229238142444135 -5.335715577454242,10.095745938117926c-2.8586560758562376,-2.4182905081343478 -4.904345536988414,-5.620681687089998 -5.871609896956021,-9.422896120596137c-0.6387569943241658,-2.5091591890876446 -4.300427480336255,-1.442883173374586 -3.6600088817985257,1.0725203160250971c1.2567800217417873,4.940696786302052 4.039116782746378,8.981914460141432 7.836832254385918,12.014016161095894c-0.007468508604449711,5.313846647745613 -0.06553672295554105,10.622278040700845 -0.4073170129210075,15.92472972234031c-2.4944802147706633,0.05027808303508274 -4.988960429541327,0.09700273585022147 -7.48344064431199,0.10497039249131708c-0.0680245667081507,-0.14028332189720896 -0.14932039862278662,-0.27873568794021 -0.25384799588981777,-0.4127747095253803c-6.646416854254259,-8.571792696285348 -11.209814147720643,-19.6448510099362 -11.054686844706971,-30.879387988012354c0.18332977852466653,-13.322937925657548 10.019398747588982,-19.472779966026774 21.575138485452413,-19.652788679824386c0.18664883916294303,-0.002637952292840046 0.35422282695959517,-0.03525912964331639 0.5118346554947971,-0.08198378245845513c0.13687786162865787,0.041449630192779544 0.28122423186176543,0.0696565811221043 0.4371769448567142,0.08198378245845513c25.272477466906636,1.89974017360566 20.368131929918224,34.8384331392426 8.147916418183389,49.52312243238429z"/></g></g><g transform="translate(0,0)"><g transform="matrix(1,0,0,1,833,192)"><path style="fill:none;stroke:rgb(229,45,91);stroke-width:3.0;" d="m26.6076264952053,38.10191077525496c48.91710285976491,-69.60218835524385 203.19159001601332,-40.95906709070582 210.72572999934434,65.48759702855449c7.519524774827919,106.44268866870313 -75.25736238441723,163.76828815829535 -161.8086271395794,118.7268308904134c-86.53664954665912,-45.01005120848018 -92.2804264883644,-122.50390646479752 -48.91710285976491,-184.2144279189679z"/></g><text style="font-weight:bold; font-size: 30px; text-anchor: middle; font-family: arial,helvetica; fill: #333333;" y="325" x="952">UX Vision</text></g><g transform="translate(0,0)"><g transform="matrix(1,0,0,1,1492,188)"><path style="fill:none;stroke:#333333;stroke-width:3.0;" d="m29.62613874466136,42.42439645143934c54.466522091755046,-77.49823493335975 226.24273678253584,-45.6056839455338 234.63159012532037,72.91686223767623c8.372580106426044,118.51811973616104 -83.7949623187839,182.34704353759778 -180.1650680335653,132.1958411174771c-96.35383247842296,-50.116233488433814 -102.7492143672965,-136.40140845870314 -54.466522091755046,-205.11270335515334z"/></g><text style="font-weight:bold; font-size: 24px; text-anchor: middle; font-family: arial,helvetica; fill: #333333;" y="315" x="1624">Design</text><text style="font-weight:bold; font-size: 24px; text-anchor: middle; font-family: arial,helvetica; fill: #333333;" y="346" x="1624">The Experience</text></g><g transform="translate(0,0)"><g transform="matrix(1,0,0,1,1389,290)"><path style="fill:rgb(0,0,0);stroke:#333333;stroke-width:3.0;" d="m118.8,27.25776l-42.29088,-26.04648l3.5363519999999995,16.773624l-80.49576,-4.715039999999999l1.1787816,29.003279999999997l80.42039999999999,-4.0075199999999995l-8.251488,20.545607999999998z"/></g></g><g transform="translate(0,0)"><g transform="matrix(1,0,0,1,113,398)"><path style="fill:rgb(255,51,0);stroke:rgb(229,45,0);stroke-width:3.0;" d="m1.80391168,-0.4914l121.95072,-0.02974114285714286c3.0282495999999997,0 4.7337216,0.8566984285714287 4.7337216,2.3775942857142858c-0.367744,12.010024285714286 1.14353408,26.087142857142858 0.97659136,41.37814285714286c0.10490368,1.5200357142857144 -1.21715712,2.9906357142857143 -4.2454016,2.9906357142857143l-121.622784,-1.1034977142857145c-3.0282495999999997,0 -3.0246656,-0.36615857142857144 -3.0246656,-1.8869785714285714l-1.54867456,-41.96198571428571c0,-1.520897142857143 -0.24773888,-1.764244285714286 2.7805184000000005,-1.764244285714286z"/></g><text style="font-weight:bold; font-size: 14px; text-anchor: middle; font-family: arial,helvetica; fill: #ffffff;" y="425" x="177">Vision/Idea</text></g><g transform="translate(0,0)"><path style="fill:none;stroke:#333333;stroke-width:2;" d="M177,396 C177,345.5 33,295  120,295"/><polyline style="fill:#ffffff;stroke:#333333;stroke-width:2;fill-opacity:0;" points="103,305 120,295 102,285"/><text style="font-weight:Normal; font-size: 12px; text-anchor: middle; font-family: arial,helvetica; fill: #333333;" y="316" x="116"/><text style="font-weight:Normal; font-size: 12px; text-anchor: start; font-family: arial,helvetica; fill: #333333;" y="326" x="115"/><text style="font-weight:Normal; font-size: 12px; text-anchor: middle; font-family: arial,helvetica; fill: #333333;" y="391" x="157"/></g><g transform="translate(0,0)"><g transform="matrix(1,0,0,1,250,196)"><path style="fill:none;stroke:#333333;stroke-width:3.0;" d="m24.371691495608214,34.900069533636895c44.80642194717963,-63.75326496404689 186.1166664852559,-37.51712867972214 193.0176854615843,59.98443761439025c6.887631936607086,97.4979249150306 -68.93321428488638,150.00624713658988 -148.21126351440466,108.74978627777362c-79.26466218979701,-41.22769396407008 -84.52576880026656,-112.20946054338597 -44.80642194717963,-168.73422389216387z"/></g><text style="font-weight:bold; font-size: 24px; text-anchor: middle; font-family: arial,helvetica; fill: #333333;" y="285" x="359">Research</text><text style="font-weight:bold; font-size: 24px; text-anchor: middle; font-family: arial,helvetica; fill: #333333;" y="316" x="359">Contextual/</text><text style="font-weight:bold; font-size: 24px; text-anchor: middle; font-family: arial,helvetica; fill: #333333;" y="347" x="359">Behaviour</text></g><g transform="translate(0,0)"><g transform="matrix(1,0,0,1,515,201)"><path style="fill:none;stroke:#333333;stroke-width:3.0;" d="m24.70708174554778,35.38034571987961c45.42302408406742,-64.63060347272643 188.6779050148695,-38.033419441369695 195.67389214224832,60.80991152651489c6.98241586234021,98.83963947808148 -69.881836499816,152.0705532898457 -150.25086805818086,110.24634296966958c-80.35546029332632,-41.795047550731596 -85.68896745348123,-113.7536274315977 -45.42302408406742,-171.0562544961845z"/></g><text style="font-weight:bold; font-size: 24px; text-anchor: middle; font-family: arial,helvetica; fill: #333333;" y="291" x="625">Insight</text><text style="font-weight:bold; font-size: 24px; text-anchor: middle; font-family: arial,helvetica; fill: #333333;" y="322" x="625">Interpret/</text><text style="font-weight:bold; font-size: 24px; text-anchor: middle; font-family: arial,helvetica; fill: #333333;" y="353" x="625">Understand</text></g><g transform="translate(0,0)"><g transform="matrix(1,0,0,1,433,290)"><path style="fill:rgb(0,0,0);stroke:#333333;stroke-width:3.0;" d="m118.8,27.25776l-42.29088,-26.04648l3.5363519999999995,16.773624l-80.49576,-4.715039999999999l1.1787816,29.003279999999997l80.42039999999999,-4.0075199999999995l-8.251488,20.545607999999998z"/></g></g><g transform="translate(0,0)"><g transform="matrix(1,0,0,1,1063,290)"><path style="fill:rgb(0,0,0);stroke:#333333;stroke-width:3.0;" d="m118.8,27.25776l-42.29088,-26.04648l3.5363519999999995,16.773624l-80.49576,-4.715039999999999l1.1787816,29.003279999999997l80.42039999999999,-4.0075199999999995l-8.251488,20.545607999999998z"/></g></g><g transform="translate(0,0)"><g transform="matrix(1,0,0,1,730,290)"><path style="fill:rgb(0,0,0);stroke:#333333;stroke-width:3.0;" d="m118.8,27.25776l-42.29088,-26.04648l3.5363519999999995,16.773624l-80.49576,-4.715039999999999l1.1787816,29.003279999999997l80.42039999999999,-4.0075199999999995l-8.251488,20.545607999999998z"/></g></g><text style="font-weight:Normal; font-size: 16px; text-anchor: end; font-family: Arial; fill: #ccc;" y="453" x="1757">http://sketchboard.io</text></svg>